<svg width="841.9000000000001" height="192.3" xmlns="http://www.w3.org/2000/svg">
 <g>
  <title>Layer 1</title>
  <g fill="#61DAFB" id="svg_1" stroke="null">
   <path d="m161.93334,92.21259c0,-7.9892 -10.00493,-15.5605 -25.34419,-20.25569c3.53983,-15.63424 1.96657,-28.07281 -4.96559,-32.05512c-1.59784,-0.93412 -3.46608,-1.3766 -5.5064,-1.3766l0,5.48182c1.13078,0 2.04032,0.22124 2.80236,0.63914c3.34317,1.91741 4.79352,9.2183 3.66274,18.60868c-0.2704,2.31072 -0.71288,4.74435 -1.25369,7.22715c-4.8181,-1.17994 -10.07868,-2.08948 -15.60966,-2.67945c-3.31859,-4.5477 -6.76009,-8.6775 -10.22617,-12.29107c8.01378,-7.44839 15.53592,-11.52903 20.649,-11.52903l0,-5.48182c-6.76009,0 -15.60966,4.8181 -24.55756,13.17603c-8.9479,-8.30876 -17.79747,-13.0777 -24.55756,-13.0777l0,5.48182c5.0885,0 12.63522,4.05605 20.649,11.45528c-3.4415,3.61358 -6.883,7.71879 -10.15243,12.26649c-5.55556,0.58997 -10.81614,1.49951 -15.63424,2.70404c-0.56539,-2.45821 -0.98329,-4.84268 -1.27827,-7.12882c-1.15536,-9.39038 0.2704,-16.69128 3.58899,-18.63327c0.73746,-0.44248 1.69617,-0.63914 2.82695,-0.63914l0,-5.48182c-2.0649,0 -3.93314,0.44248 -5.55556,1.3766c-6.90758,3.98231 -8.45626,16.39629 -4.89185,31.98137c-15.29009,4.71977 -25.24586,12.26649 -25.24586,20.2311c0,7.9892 10.00493,15.5605 25.34419,20.25569c-3.53983,15.63424 -1.96657,28.07281 4.96559,32.05512c1.59784,0.93412 3.46608,1.3766 5.53098,1.3766c6.76009,0 15.60966,-4.8181 24.55756,-13.17603c8.9479,8.30876 17.79747,13.0777 24.55756,13.0777c2.0649,0 3.93314,-0.44248 5.55556,-1.3766c6.90758,-3.98231 8.45626,-16.39629 4.89185,-31.98137c15.24093,-4.69519 25.1967,-12.26649 25.1967,-20.2311zm-32.00595,-16.39629c-0.90954,3.1711 -2.04032,6.44052 -3.31859,9.70995c-1.00787,-1.96657 -2.0649,-3.93314 -3.22026,-5.89971c-1.13078,-1.96657 -2.3353,-3.88398 -3.53983,-5.75222c3.49066,0.51623 6.85842,1.15536 10.07868,1.94199l0,-0.00001zm-11.25862,26.17998c-1.91741,3.31859 -3.88398,6.4651 -5.9243,9.39038c-3.66274,0.31957 -7.37464,0.49164 -11.11113,0.49164c-3.7119,0 -7.42381,-0.17208 -11.06196,-0.46706c-2.04032,-2.92528 -4.03147,-6.04721 -5.94888,-9.34121c-1.86824,-3.22026 -3.56441,-6.48969 -5.11309,-9.78369c1.52409,-3.29401 3.24484,-6.58801 5.0885,-9.80828c1.91741,-3.31859 3.88398,-6.4651 5.9243,-9.39038c3.66274,-0.31957 7.37464,-0.49164 11.11113,-0.49164c3.7119,0 7.42381,0.17208 11.06196,0.46706c2.04032,2.92528 4.03147,6.04721 5.94888,9.34121c1.86824,3.22026 3.56441,6.48969 5.11309,9.78369c-1.54868,3.29401 -3.24484,6.58801 -5.0885,9.80828zm7.94003,-3.19568c1.32744,3.29401 2.45821,6.58801 3.39234,9.78369c-3.22026,0.78663 -6.6126,1.45035 -10.12784,1.96657c1.20453,-1.89283 2.40905,-3.83481 3.53983,-5.82597c1.13078,-1.96657 2.18781,-3.95773 3.19568,-5.9243l-0.00001,0.00001zm-24.92629,26.22915c-2.28614,-2.35989 -4.57228,-4.99018 -6.83384,-7.86629c2.21239,0.09833 4.47395,0.17208 6.76009,0.17208c2.31072,0 4.59686,-0.04916 6.83384,-0.17208c-2.21239,2.87611 -4.49853,5.5064 -6.76009,7.86629zm-18.28912,-14.47888c-3.49066,-0.51623 -6.85842,-1.15536 -10.07868,-1.94199c0.90954,-3.1711 2.04032,-6.44052 3.31859,-9.70995c1.00787,1.96657 2.0649,3.93314 3.22026,5.89971c1.15536,1.96657 2.3353,3.88398 3.53983,5.75222l0,0.00001zm18.1662,-51.15544c2.28614,2.35989 4.57228,4.99018 6.83384,7.86629c-2.21239,-0.09833 -4.47395,-0.17208 -6.76009,-0.17208c-2.31072,0 -4.59686,0.04916 -6.83384,0.17208c2.21239,-2.87611 4.49853,-5.5064 6.76009,-7.86629zm-18.19079,14.47888c-1.20453,1.89283 -2.40905,3.83481 -3.53983,5.82597c-1.13078,1.96657 -2.18781,3.93314 -3.19568,5.89971c-1.32744,-3.29401 -2.45821,-6.58801 -3.39234,-9.78369c3.22026,-0.76205 6.6126,-1.42576 10.12784,-1.94199l0.00001,0zm-22.24684,30.77684c-8.70208,-3.7119 -14.33139,-8.57917 -14.33139,-12.43856c0,-3.8594 5.62931,-8.75124 14.33139,-12.43856c2.11406,-0.90954 4.42479,-1.72075 6.80925,-2.4828c1.40118,4.8181 3.24484,9.83286 5.53098,14.97053c-2.26156,5.11309 -4.08064,10.10326 -5.45724,14.89678c-2.43363,-0.76205 -4.74435,-1.59784 -6.883,-2.50738l0.00001,-0.00001zm13.22519,35.12788c-3.34317,-1.91741 -4.79352,-9.2183 -3.66274,-18.60868c0.2704,-2.31072 0.71288,-4.74435 1.25369,-7.22715c4.8181,1.17994 10.07868,2.08948 15.60966,2.67945c3.31859,4.5477 6.76009,8.6775 10.22617,12.29107c-8.01378,7.44839 -15.53592,11.52903 -20.649,11.52903c-1.1062,-0.02458 -2.04032,-0.24582 -2.77778,-0.66372zm58.30885,-18.73159c1.15536,9.39038 -0.2704,16.69128 -3.58899,18.63327c-0.73746,0.44248 -1.69617,0.63914 -2.82695,0.63914c-5.0885,0 -12.63522,-4.05605 -20.649,-11.45528c3.4415,-3.61358 6.883,-7.71879 10.15243,-12.26649c5.55556,-0.58997 10.81614,-1.49951 15.63424,-2.70404c0.56539,2.4828 1.00787,4.86726 1.27827,7.1534zm9.46413,-16.39629c-2.11406,0.90954 -4.42479,1.72075 -6.80925,2.4828c-1.40118,-4.8181 -3.24484,-9.83286 -5.53098,-14.97053c2.26156,-5.11309 4.08064,-10.10326 5.45724,-14.89678c2.43363,0.76205 4.74435,1.59784 6.90758,2.50738c8.70208,3.7119 14.33139,8.57917 14.33139,12.43856c-0.02458,3.8594 -5.65389,8.75124 -14.35597,12.43856l-0.00001,0.00001zm-65.1181,-66.05222z" id="svg_2" stroke="null"/>
   <circle cx="101.60875" cy="92.21259" r="11.23404" id="svg_3" stroke="null"/>
   <path d="m126.09257,38.52519z" id="svg_4" stroke="null"/>
  </g>
  <text fill="#63b1ff" stroke-width="0" x="448.23507" y="185.45747" id="svg_5" font-size="43" font-family="Noto Sans JP" text-anchor="start" xml:space="preserve" stroke="null" transform="matrix(1.9892 0 0 1.9892 -717.742 -248.012)">Ecommerce Marca</text>
 </g>

</svg>